<svg width="53" height="48" viewBox="0 0 53 48" fill="none" xmlns="http://www.w3.org/2000/svg">
<g filter="url(#filter0_d_92_330)">
<path d="M37.5657 15.2433C37.1733 14.9619 36.5571 14.9216 35.92 15.138H35.9189C35.2488 15.3654 16.9506 22.0031 16.2057 22.2743C16.0702 22.3141 14.8869 22.6875 15.0088 23.5192C15.1176 24.269 16.0686 24.5796 16.1847 24.6154L20.8367 25.9625C21.1454 26.8314 22.2831 30.037 22.5347 30.7218C22.6917 31.1487 22.9475 31.7097 23.3958 31.8252C23.7891 31.9535 24.1804 31.8362 24.4336 31.6681L27.2777 29.4371L31.869 32.4653L31.9784 32.5206C32.2901 32.6374 32.5888 32.6958 32.8739 32.6958C33.0942 32.6958 33.3055 32.6609 33.5074 32.591C34.1953 32.3521 34.4705 31.7977 34.4992 31.7349L37.9287 16.6594C38.138 15.8542 37.8471 15.4446 37.5657 15.2433ZM24.9395 26.5014L23.3701 30.0405L21.8008 25.6166L33.8323 18.0958L24.9395 26.5014Z" fill="white"/>
</g>
<defs>
<filter id="filter0_d_92_330" x="0" y="0" width="53" height="47.6958" filterUnits="userSpaceOnUse" color-interpolation-filters="sRGB">
<feFlood flood-opacity="0" result="BackgroundImageFix"/>
<feColorMatrix in="SourceAlpha" type="matrix" values="0 0 0 0 0 0 0 0 0 0 0 0 0 0 0 0 0 0 127 0" result="hardAlpha"/>
<feOffset/>
<feGaussianBlur stdDeviation="7.5"/>
<feComposite in2="hardAlpha" operator="out"/>
<feColorMatrix type="matrix" values="0 0 0 0 0.248408 0 0 0 0 0 0 0 0 0 1 0 0 0 1 0"/>
<feBlend mode="normal" in2="BackgroundImageFix" result="effect1_dropShadow_92_330"/>
<feBlend mode="normal" in="SourceGraphic" in2="effect1_dropShadow_92_330" result="shape"/>
</filter>
</defs>
</svg>
