<svg width="37" height="27" viewBox="0 0 37 27" fill="none" xmlns="http://www.w3.org/2000/svg">
<g filter="url(#filter0_d_92_326)">
<path d="M31.9288 6.96155C31.9805 6.80216 32.0053 6.65439 31.9985 6.52244C31.9816 6.14034 31.7015 5.86273 31.0423 5.86273H28.0971C27.3534 5.86273 27.0103 6.28495 26.8101 6.70822C26.8101 6.70822 24.9741 10.2538 22.858 12.5918C22.1718 13.2684 21.823 13.2515 21.4518 13.2515C21.2527 13.2515 20.7498 13.0256 20.7498 12.406V6.93305C20.7498 6.2005 20.5552 5.86273 19.9263 5.86273H14.6962C14.2384 5.86273 13.9999 6.20051 13.9999 6.53933C13.9999 7.24338 15.0101 7.41226 15.1249 9.38507V13.2093C15.1249 14.1382 14.9527 14.307 14.5815 14.307C13.5803 14.307 11.6093 11.1404 10.2897 6.99005C10.0039 6.17306 9.71819 5.86273 8.97457 5.86273H6.00124C5.14287 5.86273 5 6.2575 5 6.67972C5 7.44076 5.67499 11.5553 9.35932 16.2862C12.0312 19.7167 15.5512 21.6958 18.6674 21.6958C20.5552 21.6958 20.7487 21.2451 20.7487 20.5411V17.404C20.7498 16.5585 20.9557 16.4181 21.5564 16.4181C21.985 16.4181 22.8591 16.682 24.5466 18.5292C26.4928 20.6593 26.8461 21.6958 27.9621 21.6958H30.9073C31.5913 21.6958 31.9839 21.4267 31.9996 20.9042C32.003 20.7712 31.9828 20.6223 31.9366 20.4566C31.7184 19.8486 30.7172 18.3624 29.4684 16.9459C28.7766 16.1616 28.0937 15.3848 27.7798 14.9625C27.5694 14.687 27.4896 14.4928 27.4997 14.307C27.5098 14.1118 27.6178 13.926 27.7798 13.6663C27.7506 13.6663 31.5575 8.65147 31.9288 6.96155Z" fill="white"/>
</g>
<defs>
<filter id="filter0_d_92_326" x="0" y="0.862732" width="37" height="25.8331" filterUnits="userSpaceOnUse" color-interpolation-filters="sRGB">
<feFlood flood-opacity="0" result="BackgroundImageFix"/>
<feColorMatrix in="SourceAlpha" type="matrix" values="0 0 0 0 0 0 0 0 0 0 0 0 0 0 0 0 0 0 127 0" result="hardAlpha"/>
<feOffset/>
<feGaussianBlur stdDeviation="2.5"/>
<feComposite in2="hardAlpha" operator="out"/>
<feColorMatrix type="matrix" values="0 0 0 0 0.0196078 0 0 0 0 0.247059 0 0 0 0 0.843137 0 0 0 1 0"/>
<feBlend mode="normal" in2="BackgroundImageFix" result="effect1_dropShadow_92_326"/>
<feBlend mode="normal" in="SourceGraphic" in2="effect1_dropShadow_92_326" result="shape"/>
</filter>
</defs>
</svg>
